<?xml version="1.0" standalone="no"?>
<!DOCTYPE svg PUBLIC "-//W3C//DTD SVG 20010904//EN"
 "http://www.w3.org/TR/2001/REC-SVG-20010904/DTD/svg10.dtd">
<svg version="1.0" xmlns="http://www.w3.org/2000/svg"
 width="900.000000pt" height="231.000000pt" viewBox="0 0 900.000000 231.000000"
 preserveAspectRatio="xMidYMid meet">
<metadata>
Created by potrace 1.10, written by Peter Selinger 2001-2011
</metadata>
<g transform="translate(0.000000,231.000000) scale(0.100000,-0.100000)"
fill="#000000" stroke="none">
<path d="M7642 2133 l3 -128 585 -5 585 -5 3 -830 c1 -456 0 -845 -3 -863 l-6
-32 -3674 0 c-3622 0 -3674 0 -3685 19 -12 24 -14 560 -1 580 13 21 38 6 44
-26 3 -15 13 -50 21 -78 24 -78 44 -146 60 -200 7 -27 21 -67 29 -87 l16 -38
131 0 c110 0 132 3 137 16 5 14 -78 288 -114 376 -17 40 -12 58 17 58 11 0 35
16 55 37 l35 36 0 374 0 373 -25 40 c-48 76 -43 75 -379 78 -239 3 -301 1
-307 -10 -11 -17 -11 -1659 -1 -1676 7 -10 793 -12 3898 -10 l3889 3 0 1005 0
1005 -595 3 -596 2 -54 55 c-30 30 -58 55 -62 55 -5 0 -7 -57 -6 -127z m-6034
-775 c3 -253 5 -248 -88 -248 -48 0 -61 4 -70 19 -11 22 -14 433 -3 445 4 4
41 5 83 4 l75 -3 3 -217z"/>
<path d="M25 2138 c-3 -7 -4 -461 -3 -1008 l3 -995 462 -5 462 -5 53 -53 c30
-28 59 -52 66 -52 9 0 12 32 12 119 0 99 -3 120 -16 125 -9 3 -213 6 -454 6
l-439 0 -6 32 c-3 18 -4 407 -3 863 l3 830 3550 0 3550 0 5 -775 5 -775 254 0
254 0 15 65 c8 36 15 94 16 130 l1 65 -130 5 -130 5 -5 715 -5 715 -3758 3
c-3001 2 -3759 0 -3762 -10z"/>
<path d="M346 1815 c-8 -21 -8 -1338 0 -1359 5 -14 39 -16 273 -16 163 0 281
4 306 11 22 6 56 28 76 48 31 30 38 46 44 91 3 30 5 300 3 600 -3 502 -4 548
-21 573 -40 61 -43 62 -373 65 -272 3 -302 1 -308 -13z m422 -677 l-3 -443
-70 0 -70 0 -3 443 -2 442 75 0 75 0 -2 -442z"/>
<path d="M2005 1818 c-3 -7 -4 -319 -3 -693 l3 -680 130 0 130 0 0 690 0 690
-128 3 c-96 2 -129 -1 -132 -10z"/>
<path d="M2395 1818 c-3 -7 -4 -319 -3 -693 l3 -680 130 0 130 0 3 169 c1 97
7 175 13 182 7 8 56 13 157 16 173 4 213 17 247 84 19 37 20 59 20 434 0 431
0 431 -58 474 -27 20 -42 21 -333 24 -243 2 -305 0 -309 -10z m433 -495 c3
-292 6 -283 -87 -283 -31 0 -62 5 -69 12 -13 13 -18 509 -5 522 4 4 41 5 83 4
l75 -3 3 -252z"/>
<path d="M3206 1815 c-3 -9 -6 -317 -6 -685 0 -558 2 -669 14 -679 9 -8 55
-11 137 -9 l124 3 3 169 c1 104 7 175 13 183 9 9 45 13 137 13 181 0 238 21
274 101 16 38 18 74 18 423 -1 420 -1 417 -65 468 -29 23 -32 23 -336 26 -276
3 -307 1 -313 -13z m442 -492 c3 -291 5 -283 -83 -283 -87 0 -85 -7 -85 279 0
136 3 251 7 255 4 4 41 5 83 4 l75 -3 3 -252z"/>
<path d="M4182 1805 c-7 -14 -14 -45 -17 -68 -3 -23 -12 -77 -20 -119 -8 -43
-21 -113 -29 -155 -8 -43 -20 -107 -27 -143 -7 -36 -15 -87 -19 -115 -8 -59
-26 -155 -46 -242 -8 -34 -14 -74 -14 -88 0 -14 -6 -54 -14 -88 -24 -107 -47
-240 -49 -292 l-2 -50 135 0 c112 0 135 3 137 15 1 8 5 41 8 73 9 77 21 87
108 87 40 0 77 -4 83 -8 6 -4 14 -33 18 -64 3 -31 10 -68 16 -82 l10 -26 130
0 c106 0 132 3 136 15 3 8 -1 47 -9 87 -19 90 -38 189 -47 248 -7 44 -18 105
-45 245 -7 39 -21 115 -30 170 -9 55 -23 128 -31 162 -8 34 -14 74 -14 88 0
14 -6 54 -14 88 -20 88 -38 184 -45 237 l-6 45 -146 3 -146 3 -11 -26z m172
-657 c9 -42 16 -92 16 -110 0 -18 5 -68 12 -111 14 -91 9 -99 -57 -95 l-40 3
-3 53 c-2 29 4 90 12 136 9 45 16 105 16 132 0 27 3 60 7 73 8 33 18 13 37
-81z"/>
<path d="M4815 1818 c-3 -7 -4 -319 -3 -693 l3 -680 120 0 120 0 5 250 c3 138
7 251 8 253 6 9 22 -12 22 -30 0 -11 7 -41 15 -67 8 -25 21 -74 30 -108 38
-156 47 -191 64 -243 l18 -55 119 -3 c65 -1 129 0 142 3 l22 5 0 685 0 685
-22 5 c-13 3 -77 4 -143 3 l-120 -3 -5 -230 c-3 -143 -9 -230 -15 -230 -5 0
-13 18 -16 40 -3 22 -10 56 -16 75 -15 46 -32 115 -42 165 -5 22 -13 53 -20
68 -6 16 -11 41 -11 57 0 53 -19 60 -151 60 -86 0 -121 -3 -124 -12z"/>
<path d="M5615 1818 c-3 -7 -4 -319 -3 -693 l3 -680 269 -3 c338 -3 369 5 420
105 14 28 16 97 16 606 l0 574 -30 41 c-20 28 -41 44 -67 51 -58 16 -602 15
-608 -1z m429 -254 c3 -9 6 -201 6 -428 0 -318 -3 -416 -13 -430 -10 -14 -25
-16 -77 -14 l-65 3 -3 430 c-1 237 0 436 3 443 7 19 141 16 149 -4z"/>
<path d="M6548 1823 c-15 -2 -45 -22 -67 -45 l-41 -40 0 -593 0 -592 28 -39
c47 -64 90 -74 329 -74 221 0 266 8 311 58 51 57 53 86 50 668 -4 715 25 658
-343 660 -132 1 -252 0 -267 -3z m320 -668 c1 -231 0 -430 -3 -442 -5 -21 -11
-23 -74 -23 -54 0 -70 4 -75 16 -8 22 -8 859 1 868 4 4 39 5 78 4 l70 -3 3
-420z"/>
<path d="M8030 1822 c-42 -12 -71 -35 -93 -77 -22 -39 -22 -48 -25 -579 -2
-473 -1 -546 13 -590 21 -65 43 -91 97 -116 38 -17 65 -20 253 -19 247 0 280
8 330 78 l30 43 0 581 c0 553 -1 583 -19 610 -10 15 -33 38 -50 50 -30 21 -40
22 -271 24 -132 1 -251 -2 -265 -5z m328 -670 c1 -280 -1 -430 -8 -442 -9 -17
-21 -20 -74 -20 -49 0 -65 4 -70 16 -8 22 -8 859 1 868 4 4 39 5 78 4 l70 -3
3 -423z"/>
</g>
</svg>
