<?xml version="1.0" standalone="no"?>
<!DOCTYPE svg PUBLIC "-//W3C//DTD SVG 20010904//EN"
 "http://www.w3.org/TR/2001/REC-SVG-20010904/DTD/svg10.dtd">
<svg version="1.0" xmlns="http://www.w3.org/2000/svg"
 width="300.000000pt" height="77.000000pt" viewBox="0 0 300.000000 77.000000"
 preserveAspectRatio="xMidYMid meet">
<metadata>
Created by potrace 1.10, written by Peter Selinger 2001-2011
</metadata>
<g transform="translate(0.000000,77.000000) scale(0.100000,-0.100000)"
fill="#ffffff" stroke="none">
<path d="M2550 717 l0 -47 198 0 197 0 -3 -290 -3 -290 -1229 0 -1230 0 0 105
c0 58 4 105 9 105 5 0 17 -26 26 -57 9 -32 18 -66 21 -75 4 -14 16 -18 54 -18
l49 0 -25 72 c-24 71 -24 71 -4 85 18 13 20 26 20 142 0 86 -4 132 -13 143 -9
13 -35 17 -120 20 l-107 3 0 -282 0 -283 1300 -2 1300 -3 0 338 0 337 -197 0
c-188 0 -198 1 -220 22 l-23 21 0 -46z m-2080 -154 c0 -5 -7 -16 -14 -26 -16
-20 -32 -6 -22 18 5 15 36 21 36 8z m110 -8 c7 -9 10 -18 7 -22 -8 -7 -37 15
-37 28 0 14 16 11 30 -6z m-40 -105 l0 -80 -30 0 -30 0 0 80 0 80 30 0 30 0 0
-80z m-72 -92 l21 -23 -24 -27 c-13 -16 -27 -28 -30 -28 -3 0 -5 23 -5 50 0
56 7 61 38 28z m122 6 c0 -9 -10 -32 -22 -52 l-21 -35 -18 22 c-18 22 -17 23
14 51 37 34 47 37 47 14z"/>
<path d="M10 383 l0 -338 151 3 152 3 28 -27 28 -27 -2 46 -2 47 -152 0 -152
0 -3 290 -3 290 1188 0 1188 0 -3 -260 -3 -260 86 0 87 0 6 31 c11 56 9 59
-39 59 l-45 0 0 240 0 240 -1255 0 -1255 0 0 -337z m2500 -183 c0 -6 -8 -10
-17 -8 -12 2 -19 14 -21 38 l-4 35 21 -27 c12 -14 21 -31 21 -38z"/>
<path d="M120 383 l0 -233 99 0 c77 0 103 4 115 16 14 13 16 47 16 218 0 152
-3 206 -13 214 -7 6 -58 12 -115 14 l-102 3 0 -232z m70 168 c-15 -29 -30 -35
-30 -13 0 22 8 32 27 32 10 0 11 -5 3 -19z m118 -10 c4 -27 -12 -21 -29 10 -9
18 -8 20 8 17 10 -2 19 -14 21 -27z m-48 -161 l0 -150 -25 0 -25 0 0 150 0
150 25 0 25 0 0 -150z m-66 -181 c-9 -15 -34 3 -34 24 0 19 1 19 20 2 11 -10
17 -21 14 -26z m113 16 c-4 -8 -14 -15 -23 -15 -16 0 -16 2 1 20 20 22 31 20
22 -5z"/>
<path d="M670 383 l0 -233 45 0 45 0 0 233 0 232 -45 0 -45 0 0 -232z"/>
<path d="M800 383 l0 -233 45 0 45 0 0 63 0 62 60 0 c35 0 64 5 72 13 17 16
24 255 9 294 -10 26 -11 27 -121 30 l-110 3 0 -232z m80 178 c0 -5 -7 -14 -15
-21 -11 -9 -15 -34 -15 -95 0 -69 3 -87 21 -110 l22 -27 -27 -26 -26 -27 0
151 c0 83 3 154 7 157 9 10 33 9 33 -2z m109 -17 c3 -16 1 -17 -13 -5 -19 16
-21 34 -3 29 6 -3 14 -13 16 -24z m-39 -104 l0 -90 -30 0 -30 0 0 90 0 90 30
0 30 0 0 -90z"/>
<path d="M1070 383 l0 -233 48 0 47 0 0 62 0 61 58 1 c83 1 87 9 87 171 0 90
-4 136 -12 147 -10 13 -36 17 -121 20 l-107 3 0 -232z m80 178 c0 -5 -7 -14
-15 -21 -13 -10 -15 -9 -15 9 0 12 6 21 15 21 8 0 15 -4 15 -9z m110 -6 c7 -9
10 -18 7 -22 -8 -7 -37 15 -37 28 0 14 16 11 30 -6z m-40 -115 l0 -90 -30 0
-30 0 0 90 0 90 30 0 30 0 0 -90z m-78 -97 c23 -20 23 -29 -1 -59 -16 -20 -20
-21 -25 -8 -8 21 -8 84 1 84 3 0 15 -7 25 -17z"/>
<path d="M1395 605 c-2 -5 -20 -110 -42 -232 l-39 -223 48 0 c47 0 48 1 48 30
0 28 3 30 34 30 30 0 35 -3 38 -27 3 -26 7 -28 52 -31 46 -3 48 -2 43 20 -3
13 -22 115 -42 228 -20 113 -38 207 -40 209 -9 9 -98 5 -100 -4z m74 -72 c12
-48 17 -92 11 -93 -3 -1 -13 2 -23 5 -9 4 -25 1 -34 -6 -15 -13 -16 -9 -9 40
12 94 38 119 55 54z m-6 -185 c6 -65 5 -68 -16 -68 -22 0 -22 1 -13 80 11 91
20 87 29 -12z m-62 -119 c-30 -25 -35 -19 -26 27 l6 37 22 -22 22 -22 -24 -20z
m120 18 c5 -19 3 -27 -6 -27 -19 0 -36 25 -29 44 9 23 27 15 35 -17z"/>
<path d="M1610 615 c0 0 -1 -105 -3 -233 l-2 -232 43 0 42 0 1 98 1 97 18 -70
c10 -38 21 -82 24 -98 6 -25 10 -27 56 -27 l50 0 -2 231 -3 231 -47 2 -48 2 0
-76 c0 -112 25 -133 41 -35 4 22 7 -38 8 -132 0 -104 -3 -173 -8 -173 -6 0
-18 24 -27 54 -9 29 -25 64 -35 77 l-18 24 -25 -24 -26 -24 0 127 c0 75 4 125
9 121 5 -3 17 -27 26 -54 9 -27 24 -56 35 -66 18 -16 18 -14 -1 72 -10 48 -20
92 -22 97 -2 7 -36 11 -87 11z"/>
<path d="M1874 611 c-2 -2 -4 -107 -4 -233 l0 -228 100 0 c146 0 140 -10 140
239 0 148 -3 201 -13 209 -12 10 -214 22 -223 13z m76 -50 c0 -5 -7 -14 -15
-21 -13 -10 -15 -9 -15 9 0 12 6 21 15 21 8 0 15 -4 15 -9z m110 -6 c7 -9 10
-18 7 -22 -8 -7 -37 15 -37 28 0 14 16 11 30 -6z m-40 -175 l0 -150 -27 0 -28
0 0 150 0 150 28 0 27 0 0 -150z m-70 -176 c0 -8 -4 -14 -10 -14 -12 0 -31 35
-23 44 9 8 33 -14 33 -30z m117 11 c-4 -8 -14 -15 -23 -15 -16 0 -16 2 1 20
20 22 31 20 22 -5z"/>
<path d="M2162 598 c-9 -9 -12 -70 -12 -214 0 -242 -4 -234 122 -234 120 0
118 -4 118 234 0 164 -3 197 -16 210 -19 20 -193 23 -212 4z m68 -37 c0 -5 -7
-14 -15 -21 -21 -18 -21 -286 0 -314 17 -23 9 -42 -11 -25 -11 9 -14 48 -14
184 0 94 3 175 7 178 9 10 33 9 33 -2z m109 -10 c14 -25 1 -35 -15 -13 -16 20
-17 32 -4 32 5 0 14 -8 19 -19z m-46 -168 l-1 -148 -26 -3 -26 -3 0 150 0 151
28 0 27 0 -2 -147z m47 -158 c0 -16 -6 -25 -15 -25 -18 0 -19 4 -3 30 16 26
18 25 18 -5z"/>
<path d="M2656 594 c-13 -13 -16 -46 -16 -210 0 -238 -2 -234 118 -234 126 0
122 -8 122 234 0 144 -3 205 -12 214 -19 19 -193 16 -212 -4z m64 -31 c-1 -14
-27 -43 -33 -37 -8 9 11 44 23 44 6 0 10 -3 10 -7z m118 -172 c2 -119 -1 -178
-9 -187 -19 -23 -31 -4 -15 22 23 34 23 296 1 314 -20 17 -19 32 3 28 15 -3
17 -21 20 -177z m-48 -12 l0 -150 -26 3 -26 3 -1 148 -2 147 28 0 27 0 0 -151z
m-70 -171 c0 -5 -7 -8 -15 -8 -10 0 -15 10 -15 27 0 26 1 26 15 7 8 -10 15
-22 15 -26z"/>
</g>
</svg>
